<svg xmlns="http://www.w3.org/2000/svg" viewBox="0 0 344.45 460.8"><defs>
    <path d="M278.87,463l-59.56-41.69s-2.38-73.85,19.06-90.52S261,257,257.43,235.51c0,0-11.14-31.59-44.77-25.62s-30.37,43.93-29.82,64-24.41,58.57-41.76,70c0,0,5.42-46.8-19-75.46S85.22,158.91,108.54,112.81,186.63,20.61,289.68,26,428,83.52,431.22,105.76s-19.52,43.39-19.52,43.39-28.2-19-52.61-17.9c0,0,3.26,45.55-55.31,70.5L298.9,265.2l71.58,75.93s27.12-25.49,41.22-25.49,28.74,13.56,28.74,23.86,2.17,19.53-10.3,32c0,0-3.8-14.1-7.59-10.3s-10.31,13-3.8,30.91,11.39,51.52-5.42,81.89-77-3.79-96.54-10.3S278.87,463,278.87,463Z" transform="translate(-96.14 -25.6)"/>
    <path d="M431.68,290.41a33.8,33.8,0,0,0-1.8-6.59c-.7-2.13-1.62-4.13-2.45-6.19-3.52-8.1-7.7-15.81-11.92-23.49-3.8-6.78-7.79-13.43-11.87-20.06a34.42,34.42,0,0,0,10-4.52,12.88,12.88,0,0,0,5-6,6.47,6.47,0,0,0,.46-2.1,6.55,6.55,0,0,0,0-2,26.23,26.23,0,0,0-.55-3.5c-.9-4.43-2-8.68-3.16-13s-2.34-8.51-3.58-12.75c-2.46-8.47-5.09-16.88-7.77-25.28s-5.46-16.76-8.44-25.05c2,8.58,4.3,17.09,6.38,25.65l6.53,25.58c2.06,8.52,4.41,17.08,6,25.56.39,2.18.74,4.1.21,5.43a8.76,8.76,0,0,1-3.43,3.89,34,34,0,0,1-11.38,4.52l-3.08.7,1.66,2.62c4.65,7.33,9.14,14.8,13.51,22.31s8.62,15.1,12.42,22.85a61.32,61.32,0,0,1,4.52,11.81A20.08,20.08,0,0,1,429,297a19,19,0,0,1-1.6,5.94c-1.64,3.79-4.81,6.83-8.32,9.3a85.44,85.44,0,0,1-11.3,6.47,68.49,68.49,0,0,0,11.94-5.5c3.76-2.25,7.41-5.2,9.6-9.32a20.94,20.94,0,0,0,2.17-6.53A23.08,23.08,0,0,0,431.68,290.41Z" transform="translate(-96.14 -25.6)"/>
</svg>