<svg xmlns="http://www.w3.org/2000/svg" viewBox="0 0 503.79 288.89">
<path d="M503.24,432.79H487.08l0-1.54a83.65,83.65,0,0,0-.2-9.54c-.63-3.82-2.19-6.28-4.62-7.31-3.6-1.52-8.35.27-10.51,1.76-1.77,1.22-6.06,6-7.57,7.81l-.91,1.06-14.84-10.94,1-1.22c1.54-1.86,5.73-7.12,6.52-9.18,1-2.71,2-6.38.46-8.43-1.78-2.42-6.57-2.13-8.88-2l-.35,0c-3.48.2-13.35-.83-13.77-.88l-1.34-.14V372.6l12.19,1.78,14.6,1.17.19,1.16c2.57,16,16.68,24.73,21.5,27.3l.46-1.93,1.56.53c3.93,1.34,12.74-.81,19.67-3.26l1.82-.63c10-3.45,23.71-8.18,24.88-27.74.06-1,.1-2,.11-3l-2.81,0c.27,3.59.11,11.89-5.88,18.73-6.19,7.06-16.68,10.38-31.18,9.91v4.85l-1.39.1a26.28,26.28,0,0,1-5,0c-11.4-2.5-22.93-14.32-23-35.06-.07-23.07,17.34-32,23.44-33.33,9.48-2,23.78-1.9,31.31,1.87,11.27,5.63,17,15.48,17.5,30l10.5.08c0-.05,0-.09,0-.14.25-3.21,2-6,5.14-8.23,1.82-1.29,6.68-2.82,9.13-3.54l-2.47-11.1a102.18,102.18,0,0,1-11.39.34c-3.52-.33-8.41-2-10.64-5.53-1.5-2.39-1.65-5.24-.44-8.48.86-2.3,4-7.31,5.5-9.61l-8.15-6.24a65.15,65.15,0,0,1-6.88,5.67c-2.88,1.72-10.53,4.34-15.76,1.48-2.1-1.15-4.65-3.69-4.83-9.26-.05-1.61-.29-5.43-.42-7.5h-12c0,2.36,0,6.88,0,8.78-.05,3.59-4,10.32-9.18,11.89-2.78.85-6.95.6-11.09-5.39-1.05-1.52-3.81-6-5.17-8.2l-11.33,6.64c1.75,2.69,5.57,8.68,6.48,11.08.84,2.23,2.82,7.45.12,11.16-1.9,2.61-5.67,3.79-11.2,3.52-2.5-.12-8.78-.63-11.64-.87l-1.42,12.47c2.46.55,7.4,1.77,9.24,3.16,3.14,2.36,1.41,10.09.8,12.4l-.36,1.39-28.8-6.23-2.92,3.71-1.19-1.13a87.69,87.69,0,0,0-7.63-6.59c-3.16-2-5.8-2.49-7.86-1.4-3,1.61-4.58,6.53-4.67,9.34-.11,3.54,1.92,14.41,1.94,14.52l.27,1.44L378,388l-.56-.88c-.14-.23-3.54-5.58-4.62-7.48-2.83-5-5.7-7.53-8.36-7.47-3,.1-5.68,3.57-7.09,6.5-1.29,2.7-3.81,11.67-3.84,11.76l-.35,1.24-17.78-2.09.38-1.64c.51-2.17,1.81-8.23,1.71-10.28-.25-5.13-1.64-8.33-4.14-9.5-3.45-1.62-8.79.84-11.35,2.78-2.29,1.73-8.77,7.7-8.83,7.76l-.95.87-13-10.43L300,368c1.19-1.62,4.46-6.19,5.33-7.88,1.57-3,3.08-7.18,1.29-9.74-2.05-2.93-7.59-3-10.24-2.7-3.31.43-13.28,2.79-13.38,2.81l-1.18.28-6.74-14.25,1.05-.72c.07-.05,6.94-4.81,9.09-6.49,3.24-2.54,4.92-5,5-7.36l-123.85-1.5h0l123-1.5a13.48,13.48,0,0,0-7.34-5.33c-2.16-.55-8.91-.31-11.33-.18l-1.54.09-.52-18.46,1.42-.11c.09,0,9-.73,11.83-1.29,4.06-.79,6.51-2.53,7.28-5.17,1.08-3.69-1.35-8.36-3-9.94-1.24-1.18-6.12-3.38-8.91-4.49l-1.47-.59,7.75-16.79,1.24.36c.08,0,7.58,2.18,10.07,2.58,5.46.86,9.16.31,10.7-1.58,1.37-1.69,1.26-4.66-.33-8.84-1.16-3-4.59-12.23-4.59-12.23l-.44-1.19,13.6-7.84.8,1.06c1.28,1.7,4.93,6.37,6.48,7.57,4.37,3.37,8,4.52,10.68,3.43,3.58-1.44,5.14-6.73,5.45-8.73l.73-12.21,17.38-.53-.06,1.61c-.1,2.53-.09,7.06.36,8.41,1.69,5.09,4,7.88,6.91,8.28,4.24.59,8.83-3.89,10.28-6s4.66-8.7,4.7-8.77l.6-1.22,15.18,5.76-.32,1.29c-.68,2.7-2.38,10.26-2.14,12.8a4.48,4.48,0,0,0,1.68,3.3c1.92,1.48,5,1.47,6.53,1.36l2.75-11.15-2.59.2.22-1.82c0-.11,1.28-10.7,1.08-14.13-.16-2.77-.79-4.65-1.8-5.43s-2.9-.52-4.48-.21a14.86,14.86,0,0,1-1.95.29c-2.51.14-10.56.86-10.64.87l-1.3.12-3-12.94,1.12-.51c1.94-.88,7.3-3.42,8.87-4.62,2.62-2,4-4,4-5.77.06-2.52-2.39-4.62-3.85-5.87-2-1.7-7.65-6.79-7.88-7l-.75-.67,4.32-12.16,1.4.48c.06,0,6.49,2.23,8.63,2.81,4,1.1,6.94.91,8.61-.56,2.24-2,1.95-6,1.73-7.6-.32-2.32-2.13-9.36-2.15-9.43l-.36-1.39,14.2-4.29,3.82,8.4c1.85,3.46,4,5.23,6.42,5.17,3-.07,5.68-2.88,6.56-4.76a69.45,69.45,0,0,0,2.53-7.73l.46-1.7,15.78,7.17-.4,1.27a84.09,84.09,0,0,0-2.43,9c-.41,3.24,0,5.54,1.26,6.84,1.84,1.91,5.45,1.59,7.83,1.37l.87-.07a71.81,71.81,0,0,0,8.82-2.13l1.69-.5,2.16,17.21-1.23.36c-2.8.81-7.16,2.23-8.08,2.85a4.82,4.82,0,0,0-2.29,3.54c-.32,2.59,1.23,5.4,2.35,6.66,1.33,1.49,6.49,4.7,8.37,5.82l1,.61-4.26,13.31-1.3-.25c-.07,0-6.66-1.26-8.83-1.51-4.09-.46-7,.12-8.71,1.72-1.38,1.3-2,3.35-1.84,6.09s1.92,10.59,1.94,10.67l.34,1.52L434.44,238l-.3-1.43a80.22,80.22,0,0,0-2.1-8.25c-1-2.56-9.19-2.3-14.38-1.32l-2.45.46,5-16.09h1.11c.16,0,12.41-.07,18.12-6.92,2.66-3.19,3.51-7.44,2.55-12.63-3.09-16.66-8-18.32-14.22-20.41-.67-.23-1.36-.46-2.05-.71-3.24-1.17-9.39-.47-14.42,3.15-3.47,2.5-7.56,7.21-7.35,15.47a25.17,25.17,0,0,0,13.56,21.94l1.2.54-6.83,22.94-2.62-.23-3.37,11.69-.14.4.44-.34.38-.29c1.7-1.26,6.89-4.32,7.11-4.45l1.12-.66,11,13.59-1.3.92c-2.14,1.52-5.81,4.41-6.57,5.66-2.77,4.6-3.61,8.27-2.41,10.61,1.12,2.19,4.2,3.55,8.88,3.92,3.1.25,12,1.7,12.34,1.76l1.26.21v15.69l-1.06.32c-2.55.78-7.05,2.35-8.27,3.26-2.89,2.17-4.35,4.49-4.33,6.91,0,3.11,2.46,6,4.53,7.47,1.27.92,7.31,3.22,10.82,4.45l1.27.45-4.06,17.45-1.45-.32c-2.51-.55-9.59-1.91-12.1-1.65a7.61,7.61,0,0,0-6,3.49,10.25,10.25,0,0,0-1.07,8.05c.74,2.1,5.28,7.34,8,10.15l.9.94-5.62,7.18-23.23-16.93c-9.05,12.77-36.45,14.13-37.65,14.18l-1.42.06-.47-4.72c-10.65-2.55-37.52-10.93-47.38-32H293.21c0,3.3-2.11,6.56-6.15,9.72-1.73,1.35-6.15,4.45-8.19,5.87l4.61,9.76c2.79-.65,9.7-2.22,12.49-2.59,1-.13,9.55-1.09,13.08,4,2.13,3,1.76,7.36-1.08,12.84-.86,1.65-3.39,5.24-4.73,7.1l8.79,7c1.92-1.76,6.23-5.66,8.11-7.08,2.79-2.1,9.39-5.46,14.43-3.1,3.59,1.68,5.56,5.74,5.86,12.08.1,2.14-.85,6.9-1.41,9.47l11.91,1.4a104.46,104.46,0,0,1,3.67-11c.64-1.34,4.12-8,9.69-8.21,3.91-.15,7.61,2.89,11.07,9,.79,1.39,3,4.84,4,6.47l10.86-2.32c-.56-3.17-1.82-10.65-1.73-13.72.1-3.38,1.89-9.6,6.26-11.91,3.08-1.63,6.75-1.12,10.88,1.52a73.09,73.09,0,0,1,6.88,5.82l2.05-2.61,27.78,6c.71-3.43.86-7.18,0-7.84-1.36-1-6.47-2.32-9.38-2.9l-1.35-.27,2.07-18.09,1.45.12c.1,0,9.82.83,13,1,4.39.22,7.38-.58,8.63-2.29,1.74-2.39.17-6.56-.5-8.33-.87-2.29-5.38-9.3-7.05-11.81l-.88-1.32,16.6-9.73.77,1.26c0,.07,4.5,7.37,5.84,9.31,2.5,3.61,5.1,5,7.75,4.23,4-1.23,7-7,7.05-9.06,0-2.61,0-10.17,0-10.24V300h17.85l.09,1.4c0,.27.44,6.7.52,9,.11,3.34,1.21,5.61,3.27,6.73,3.83,2.09,10.22.11,12.79-1.42a76.66,76.66,0,0,0,7.3-6.14l.93-.86,12.37,9.48-.77,1.17c-1.38,2.08-5.14,8-5.95,10.17s-.82,4.27.17,5.84c1.77,2.81,6.1,3.93,8.38,4.14,2.93.28,12.09-.43,12.18-.44l1.3-.1,3.65,16.41-1.38.38c-2.94.81-8.13,2.47-9.56,3.49-2.38,1.69-3.68,3.69-3.88,5.94l124.54,2.43h0l-124.19.57a11.52,11.52,0,0,0,2.84,4.68c1.85,1.8,8.84,5.29,11.38,6.48l1.36.64-6.68,14.16-1.29-.47a55.58,55.58,0,0,0-6.88-2.1c-4.23-.55-7.4.3-9.44,2.54-2.56,2.81-2.72,7.15-2.21,9.38.57,2.5,4.62,9.17,6.13,11.53l.76,1.18L529,425.7l-.91-1c-1.75-1.9-6.71-7.12-8.7-8.51-3.18-2.22-6.08-2.88-8.63-1.94-3.29,1.21-5.31,4.84-5.86,7-.49,1.89-.29,7.87-.17,10l.09,1.58h-1.58Zm-13.09-3h11.52c-.1-2.54-.19-7.31.34-9.35.86-3.3,3.64-7.53,7.73-9,2.42-.89,6.36-1.22,11.38,2.29,2.09,1.46,6.38,5.95,8.27,8l8.49-6.24c-1.61-2.59-5.13-8.47-5.78-11.28-.78-3.41-.2-8.64,2.92-12.07,1.88-2.07,5.5-4.36,12.05-3.5a44.89,44.89,0,0,1,6.23,1.8l4.24-9c-2.78-1.36-8.79-4.41-10.83-6.39a14.33,14.33,0,0,1-3.85-6.86L532.14,368c0,1-.06,2-.12,3.11-1.29,21.56-17.32,27.09-26.9,30.39l-1.73.6c-4.27,1.51-14.1,4.63-20.11,3.68l-.58,2.44-1.64-.71c-.86-.37-20.75-9.17-24.68-29.21l-12.37-1-8.85-1.29v13.49c2.85.28,9.44.87,11.94.73l.35,0c2.84-.17,8.74-.53,11.48,3.21,1.85,2.52,1.82,6.32-.08,11.28-.86,2.24-4.25,6.61-6,8.79l10,7.41c1.73-2,5.33-6,7.23-7.28,2.78-1.92,8.64-4.06,13.38-2.05,3.44,1.46,5.59,4.68,6.4,9.59A76.22,76.22,0,0,1,490.15,429.79Zm6.32-94.93a60.44,60.44,0,0,0-12.55,1.25c-6.9,1.48-21.13,10.86-21.07,30.38.06,21.8,13,30.46,20.64,32.14a16,16,0,0,0,2.76,0v-5.18l1.58.08c14.34.74,24.54-2.22,30.32-8.8,6.77-7.69,5-17.92,5-18l-.32-1.78,6.28,0c-.6-17.53-9.15-24-15.84-27.3C509.52,335.85,503.15,334.86,496.47,334.86Zm-101.06,5.21L419,357.23l2.24-2.86c-2.05-2.21-6.75-7.48-7.73-10.28a13.32,13.32,0,0,1,1.36-10.65,10.59,10.59,0,0,1,8.19-4.87c2.74-.29,8.77.83,11.61,1.4l2.78-12c-2.71-1-8.67-3.21-10.32-4.4-1-.69-5.73-4.42-5.77-9.88,0-3.42,1.83-6.56,5.53-9.34,1.62-1.21,6-2.72,8.13-3.39V280.06c-2.6-.42-8.53-1.34-10.84-1.53-5.86-.47-9.67-2.34-11.31-5.55s-.88-7.9,2.51-13.52c1-1.64,4.2-4.19,6.11-5.62l-7.36-9.11c-1.64,1-4.62,2.79-5.74,3.62l-.3.24c-1.29,1-3.24,2.56-4.76,1.48s-.68-3.6-.26-4.8l4-14,2.64.23,5.41-18.15a27.88,27.88,0,0,1-14.16-24c-.19-7.47,2.86-13.86,8.59-18,5.23-3.77,12.47-5.26,17.2-3.54l2,.69c6.58,2.21,12.81,4.31,16.21,22.71,1.13,6.12.06,11.2-3.2,15.11-5.6,6.71-15.89,7.79-19.31,8l-2.89,9.33c4.62-.61,13.4-1.12,15.29,3.53a66.43,66.43,0,0,1,1.95,7.33l7.75-1.42a92.12,92.12,0,0,1-1.67-9.63c-.21-3.66.72-6.5,2.77-8.44,2.37-2.24,6.11-3.09,11.11-2.52,1.69.19,5.67.91,7.75,1.3l2.73-8.52c-2.08-1.27-6.55-4.1-8.06-5.78a12.47,12.47,0,0,1-3.09-9,7.87,7.87,0,0,1,3.59-5.65c1.33-.9,5.48-2.22,7.7-2.89l-1.4-11.19a56.41,56.41,0,0,1-7.75,1.76l-.82.07c-2.78.25-7.42.67-10.26-2.28-1.91-2-2.61-5.11-2.08-9.3a72.08,72.08,0,0,1,2.16-8.27L437,148.1a55.94,55.94,0,0,1-2.23,6.53c-1.16,2.45-4.68,6.37-9.21,6.48-2.45.06-6.11-1.08-9.18-6.85l-2.77-6.09-8.94,2.7c.56,2.23,1.61,6.53,1.86,8.37.36,2.62.49,7.44-2.72,10.27-2.48,2.18-6.31,2.58-11.38,1.2-1.61-.44-5.36-1.69-7.42-2.39l-2.66,7.48c1.64,1.48,5.54,5,7.08,6.28,1.75,1.49,5,4.27,4.9,8.22-.07,2.77-1.81,5.48-5.18,8.07a62,62,0,0,1-8.34,4.46l1.84,8c2.41-.21,7.48-.65,9.44-.76a13.26,13.26,0,0,0,1.55-.24c2-.39,4.7-.91,6.89.79,1.77,1.37,2.73,3.87,3,7.63.17,2.81-.53,9.58-.89,12.85l3.09-.24L401.47,248l-1,.17c-.25,0-6.12,1-9.81-1.83a7.39,7.39,0,0,1-2.85-5.4c-.27-2.87,1.21-9.6,1.91-12.52l-10.15-3.85c-1.05,2.09-3.19,6.27-4.29,7.9-2.18,3.23-7.69,8.08-13.17,7.32-4.13-.57-7.27-4-9.35-10.3-.56-1.7-.59-5.62-.55-7.87L340.8,222l-.59,9.67c0,.36-1.38,8.75-7.31,11.13-3.78,1.52-8.36.23-13.63-3.84-1.69-1.3-4.75-5.16-6.24-7.08l-9.1,5.25c1,2.58,3.23,8.65,4.13,11,.75,2,3,7.91-.14,11.79-2.32,2.86-6.73,3.72-13.49,2.66-2.05-.32-6.9-1.66-9.2-2.31l-5.35,11.6c2.37,1,6.83,3,8.4,4.5,2.4,2.28,5.28,8,3.83,12.95-.76,2.62-3.05,6-9.59,7.28-2.32.45-8.06,1-10.75,1.21l.35,12.54c2.78-.11,8.35-.25,10.69.34,2.64.66,8.2,3.5,9.91,8.24h15.41a42.65,42.65,0,0,1-1.86-21.54c2.68-17.61,9.16-30.19,19.26-37.38,9.45-6.73,22.06-8.7,37.48-5.86,20.45,3.77,44.34,16.07,42,53.28-2.45,39.47-41.14,42.83-41.53,42.86l-1.61.12v-6.78c-29.23-2.5-37-17.42-38.63-21.71H312.81c10,19.31,35.57,27,45.17,29.2.59.14,1.68.39,1.68,1.57l.28,2.8c5.89-.47,28.44-3,34.65-14Zm-84-21.12h14.08l.29,1.13c.2.75,5.29,18.41,37.71,20.7l1.39.1v6.26c7.16-1,35.11-7.08,37.15-39.87,2.18-35-20.32-46.59-39.58-50.14-14.59-2.69-26.43-.89-35.19,5.35-9.41,6.7-15.48,18.61-18,35.38A39.14,39.14,0,0,0,311.41,319Z" transform="translate(-166.34 -143.94)"/>
</svg>