<svg xmlns="http://www.w3.org/2000/svg" viewBox="0 0 101.49 590.98">
<path d="M423.45,594.42h0l-1.21-45.64.09-.24c.23-.64,23.38-64.44,32.34-85.09.76-1.76,1.52-3.43,2.25-5.05,4.91-10.84,8.46-18.67,4.17-31.37-4.67-13.8-22.85-25.26-38.54-25.68-4.87-.1-15.22,1.94-20.74,4.37-6.52,2.87-9.51,4.69-12.11,7.72-.2,4.18-.31,8-.37,11.58,11.31-8.83,31.5-8.36,42.63-.88,7.88,5.29,13.18,13.3,14.19,21.42a30.91,30.91,0,0,1-9,25.62c-5.19,4.86-12.63,7.28-21,6.82-9.24-.52-18.14-4.54-23.21-10.5-4.21-4.95-6.44-16.59-6.67-34.75-10.91,15.43-5.46,29.58.59,41.71,2.79,5.59,5.38,11.38,7.89,17,1.29,2.89,2.56,5.73,3.84,8.49,2.42,5.24,5.83,13.3,8.32,19.19l1,2.38c2.8,6.61,10.42,27.2,10.5,27.41l-2.72,1.24c-.06-.11-5.86-10.78-7.57-13.34-12.14-18.27-37.61-69-37.34-82.46a64.51,64.51,0,0,1,10-33.11l.89-1.43a81.26,81.26,0,0,1,5-7.5c.1-2,.21-4,.34-6.13l.08-1.4c.05-.91,0-3.9,0-5V333.93a1.5,1.5,0,0,1,2-1.41h0a66.53,66.53,0,0,0,7.67,2.43c30.88,4.75,42.66-9,46.35-15.31a2.7,2.7,0,0,0-1-1.65,1,1,0,0,0-1-.16,50.56,50.56,0,0,0-6.82,3.71c-8.43,5.11-20,12.11-36.24,6.31-14.5-6-23.64-13.21-28.81-22.69a62.2,62.2,0,0,1-3.11-7.25,39.26,39.26,0,0,1-1.05-18.71c1.9-14.26,12.19-27.35,26.85-34.12l.12-.05c14.9-5.42,26.68-6.4,36-3l.16.07c.94.47,2.19,1,3.39,1.45s2.56,1,3.61,1.55c13.17,6.59,16.81,21.61,15.82,33.47v.1c-1.68,10.93-7.1,29.27-24.48,29.27a9.11,9.11,0,0,1-6.06-2.44l-.14-.14-.1-.17A20.42,20.42,0,0,1,417.89,294a32.52,32.52,0,0,1-11.51,10.81,7.58,7.58,0,0,1-7.3.59c-4-1.88-6.16-7.26-6.9-11.66-2.23-11.12,2.6-22.48,11.75-27.56a14.28,14.28,0,0,1,13.4,0l.1.06a11.75,11.75,0,0,1,4.72,5.31h0c0-4.07-2.32-8.66-6.79-9.55C402.8,260,390.83,268.83,386,278.14c-4,7.66-4.05,19.44,3.66,26.18,3.84,3.84,9.46,5.38,13.44,3.74,3.28-1.35,12.72-6.85,12.82-6.91l1.6-.93.58,1.75c.94,2.81,1.82,5.46,4.33,7.17,8.7,4.27,17.9-3.44,24.11-10.68,6.22-8,6.71-17.41,7.27-28.3l.12-2.29c.65-9.35.65-12.91.65-21.52V185.5a18.82,18.82,0,0,0-8.32-14.74,18.67,18.67,0,0,1-3.77,3.64c-6.46,4.75-15.58,5.86-22.17,2.7-6.14-2.94-15-11.92-18.65-17.07-23.63-33.33-27-66.76-27.31-79.58,0-.28,0-.49,0-.63l2.59-76.38h0l.41,76.33c0,.06,0,.29,0,.6.33,12.55,3.61,45.28,26.76,77.93,3.38,4.77,11.88,13.41,17.5,16.1S435.2,176,440.72,172a16.43,16.43,0,0,0,3-2.84,50.08,50.08,0,0,0-12.66-4.67l.44.79c1.15,2.3.3,5.24.2,5.56l-.16.35a3.89,3.89,0,0,1-2.74,1.73c-3.37.62-9.17-1.61-14.11-5.42-3.28-2.53-5.66-5.85-8-9.06-.9-1.25-1.75-2.44-2.63-3.54-8.63-10.81-27.25-51-24.4-74.11.05-1,.45-7.61,1.52-10.12,2.52-6,8.89-8.47,17.94-7,8,1.26,10.4,8.57,12.33,14.44.28.86.56,1.71.85,2.54,1.15,3.24,2.52,9.42-1.21,14.4-2.25,3.38-7,4-10.95,1.4-8-4-9.73-13.78-10.15-23.25a5.63,5.63,0,0,0-1.62,2.21c-1.4,7.84,2.48,16.57,9.41,21.23l3,2-8.12,1.55a182.84,182.84,0,0,1,23.77,48.42,13.7,13.7,0,0,1,16-3.88l1.6.65c5.92,2.38,13.28,5.34,15.28,13.37l0,.15a15.43,15.43,0,0,1-1.56,9.37,21.8,21.8,0,0,1,9.72,17.15v60.92c0,8.43,0,12.27-.66,21.7l-.12,2.26c-.59,11.4-1.09,21.24-7.94,30-10,11.63-19.58,15.56-27.85,11.42l-.16-.09a13.31,13.31,0,0,1-5-7c-2.89,1.66-8.95,5.08-11.6,6.18-5.05,2.08-12,.26-16.63-4.33-8.88-7.77-8.89-20.86-4.27-29.75,5.45-10.49,18.39-20,32.56-17.79,6.11,1.22,9.27,7.2,9.27,12.48v.12a51.91,51.91,0,0,1-2,10.83c0,.1,0,.2-.05.3l0,.17c-2.1,7.33-3.69,14.43-.25,20.65a6.23,6.23,0,0,0,3.8,1.43c15.12,0,20-16.69,21.51-26.68.89-10.87-2.36-24.57-14.18-30.48-.94-.47-2.19-1-3.39-1.45s-2.49-1-3.53-1.51c-8.63-3.11-19.7-2.13-33.84,3-13.71,6.35-23.31,18.53-25.09,31.81a36.35,36.35,0,0,0,.94,17.34,56,56,0,0,0,2.92,6.79c4.8,8.81,13.47,15.58,27.23,21.29,14.84,5.29,25.24-1,33.6-6.08A52.07,52.07,0,0,1,440.1,315a4.11,4.11,0,0,1,4.75,1.3c1.08,1.26,1.82,3.32,1,4.66-3.91,6.77-16.55,22-49.48,16.92a48.42,48.42,0,0,1-6.24-1.86v63.71c0,.14.07,4,0,5.17l-.09,1.42c-.06.89-.11,1.78-.16,2.64,2.42-2,5.57-3.77,10.67-6,.58-.25,14.35-4.63,21.68-4.63h.35c16.78.45,36.28,12.88,41.3,27.71,4.68,13.82.73,22.54-4.27,33.57-.73,1.6-1.48,3.26-2.24,5-8.65,19.93-30.61,80.33-32.19,84.68ZM386.52,417.86c-.67,1-1.39,2.21-2.21,3.52l-.89,1.44a61.39,61.39,0,0,0-9.59,31.58C373.6,465.92,396,512.15,409.29,533c-1.6-4.17-3.13-8.09-4.08-10.35l-1-2.38c-2.48-5.87-5.88-13.9-8.28-19.1-1.28-2.77-2.56-5.62-3.85-8.52-2.49-5.57-5.07-11.34-7.83-16.87-7.27-14.56-12.12-30.35,1.47-47.2l.6-.71Q386.33,423.13,386.52,417.86ZM389.31,429c0,25.11,3.51,33.62,6,36.5,4.56,5.35,12.64,9,21.09,9.45,7.51.42,14.16-1.71,18.74-6a27.81,27.81,0,0,0,8.08-23.06c-.9-7.27-5.72-14.48-12.88-19.3C419.37,419.29,399,419.2,389.31,429Zm21.35-161.63a11.88,11.88,0,0,0-5.33,1.34c-8,4.43-12.18,14.46-10.2,24.36.64,3.81,2.49,8.19,5.23,9.49a4.71,4.71,0,0,0,4.55-.5c7.12-3.88,12.59-11.39,15.37-20.63.52-3.78.47-9.82-4.35-12.75A11.86,11.86,0,0,0,410.66,267.41ZM394.52,66.24c-4,0-8.66,1.1-10.55,5.58-.66,1.57-1.14,6.45-1.29,9.17v.11C379.93,103,398.26,142.8,406.43,153c.93,1.16,1.8,2.37,2.72,3.66,2.18,3,4.44,6.17,7.37,8.43,4.59,3.54,9.56,5.23,11.74,4.84a1.4,1.4,0,0,0,.63-.25,5.26,5.26,0,0,0,0-3l-4.58-8.1,4.38,2.17a21.12,21.12,0,0,0,2.23.6,54.58,54.58,0,0,1,14.45,5.31,12.2,12.2,0,0,0,1.13-7.25c-1.67-6.49-7.94-9-13.47-11.24l-1.63-.66a10.75,10.75,0,0,0-14,5.26l-1.65,3.42-1.13-3.63c-6.23-20-14.87-37.65-25.67-52.51l-1.39-1.91L393.47,97c-6.18-5.58-9.42-14.25-8-22.14.48-2.69,4.54-5.69,5.6-6.35L393.5,67l-.15,2.86a23.68,23.68,0,0,1-.3,3.39c.39,8.55,1.95,17.22,8.57,20.53l.16.09c2.19,1.46,5.36,1.75,6.92-.58,2.94-3.93,1.78-9,.83-11.67-.3-.84-.59-1.72-.88-2.6-1.93-5.88-3.75-11.44-9.94-12.42A26.35,26.35,0,0,0,394.52,66.24Z" transform="translate(-364.52 -3.44)"/>
</svg>