<svg xmlns="http://www.w3.org/2000/svg" viewBox="0 0 476.57 245.33">
    <path d="M429.27,404.65l-266.93-1.5h0l247.32-1.5q-4.21-1-8.34-2.31c-6.06-1.92-59.8-20.25-80.36-72.88-21-53.68,1.53-119.84,51.23-150.62C418.71,147,469.9,163,489.75,171.15l.25.1,148.91,1.5h0L476,174.25c-45.84,4.72-82,40.3-84.11,82.79-1.8,36.21,22,72.15,55.28,83.6,23.52,8.08,45.48,1.42,49.65,0,16-5.44,28.93-16.4,45.33-30.27,4.61-3.9,9.14-8,13.46-12.15l3.07-3-.54,4.23A114.93,114.93,0,0,1,527.83,364a110.84,110.84,0,0,1-61.64,33.66c-25.17,4.5-50.56.05-73.4-12.86a118.81,118.81,0,0,1-49.09-53c-21.29-46-6.68-95.29,17.23-123.78,12.62-15,36.19-34.35,76.83-41.1a98.46,98.46,0,0,1,28.58-.26c-24.37-6-59.71-8.61-92.57,11.74-48.51,30.05-70.48,94.61-50,147,20.06,51.33,72.55,69.24,78.47,71.12a118.6,118.6,0,0,0,27.15,5.17Zm23.14-235.92a87.09,87.09,0,0,0-14.17,1.13c-31.9,5.29-57.15,18.77-75,40.07-23.31,27.76-37.54,75.81-16.81,120.59,21.18,45.74,71.33,72.73,119.25,64.17,45.21-8.08,81.21-45.31,88.91-91.32-3.4,3.17-6.9,6.29-10.44,9.29-16.65,14.08-29.8,25.2-46.3,30.82-4.33,1.47-27.14,8.4-51.59,0-34.53-11.87-59.17-49.09-57.3-86.58,2.19-44,39.53-80.8,86.87-85.64h.06A120.89,120.89,0,0,0,452.41,168.73Z" transform="translate(-162.34 -159.32)"/>
</svg>