<svg className="svg__bubble" xmlns="http://www.w3.org/2000/svg" viewBox="0 0 101.02 101">
    <path d="M7250,6713.48c1,27.52-21,50.54-47.68,51.75-28.86,1.31-53.26-23.3-52.28-51.75.88-25.61,22.08-47.33,48.35-48.18,31.16-1,50.7,28.07,51.6,47.82C7250,6713.24,7250,6713.36,7250,6713.48Z" transform="translate(-7149.49 -6664.78)"/>
    <path d="M7247.47,6713.57c.94,26.14-19.92,48-45.29,49.16-27.4,1.24-50.58-22.14-49.65-49.16.84-24.33,21-45,45.92-45.77,29.59-.95,48.15,26.66,49,45.43C7247.46,6713.34,7247.47,6713.45,7247.47,6713.57Z" transform="translate(-7149.49 -6664.78)"/>
</svg>